# xmcd
#
# Track frame offsets:
#	150
#	18054
#	42496
#	66174
#	90164
#	110234
#	128805
#	156050
#	178983
#	206186
#	224296
#	245396
#	267104
#	286942
#	308487
#
# Disc length: 4382 seconds
#
# Revision: 64617879
# Processed by: cddbd v1.5.2PL0 Copyright (c) Steve Scherf et al.
# Submitted via: EZCDAudioConverter 8.0.2.1
#
DISCID=d2111c0f
DTITLE=Various Artist - 20th Ben Thanh Audio Video's Anniversary [CD2)
DYEAR=2010
DGENRE=
TTITLE0=Đàm Vĩnh Hưng - Chia tay tình đầu
TTITLE1=Thanh Lam - Ngày em đi
TTITLE2=Phương Thanh, Hoàng Dũng - Nếu điều đó
TTITLE3=Quang Dũng - Anh sẽ đến
TTITLE4=Trần Thu Hà - Sắc màu
TTITLE5=Hồ Quỳnh Hương - Muốn nói yêu anh
TTITLE6=Thu Hà - Thôi anh hãy về
TTITLE7=Đoan Trang, Tấn Trung - Mơ ước giản đơn
TTITLE8=Quanh Linh, Minh Ánh - Tơ hồng
TTITLE9=Siu Black - Ly cà phê Ban Mê
TTITLE10=Tam Ca Áo Trắng - Vào hạ
TTITLE11=Nhật Trung - Nửa vầng trăng
TTITLE12=Thu Minh - Nha Trang mùa thu lại về
TTITLE13=Phương Thanh - Giã từ dĩ vãng
TTITLE14=Vân Trường - Chân tình
EXTD=
EXTT0=
EXTT1=
EXTT2=
EXTT3=
EXTT4=
EXTT5=
EXTT6=
EXTT7=
EXTT8=
EXTT9=
EXTT10=
EXTT11=
EXTT12=
EXTT13=
EXTT14=
PLAYORDER=
